<?xml version="1.0" encoding="UTF-8" standalone="no"?>
<!DOCTYPE svg PUBLIC "-//W3C//DTD SVG 1.1//EN" "http://www.w3.org/Graphics/SVG/1.1/DTD/svg11.dtd">
<svg width="100%" height="100%" viewBox="0 0 1481 662" version="1.1" xmlns="http://www.w3.org/2000/svg" xmlns:xlink="http://www.w3.org/1999/xlink" xml:space="preserve" xmlns:serif="http://www.serif.com/" style="fill-rule:evenodd;clip-rule:evenodd;stroke-linejoin:round;stroke-miterlimit:2;">
    <g transform="matrix(1,0,0,1,-93.662432,-501.337289)">
        <path id="outline" d="M266.575,685.276C267.291,683.736 267.909,682.28 268.411,680.93C269.046,679.22 269.867,677.585 270.858,676.054C281.207,660.068 290.702,615.774 291.627,599.537C292.026,592.537 293.183,584.572 293.065,580.055C292.135,544.465 318.778,522.381 339.161,517.153C368.834,509.543 393.473,518.488 400.447,521.398C401.033,521.642 401.603,521.892 401.983,522.061C404.317,523.01 406.65,524.131 408.963,525.429C421.155,532.271 433.165,544.311 441.274,562.24C449.39,580.183 448.212,618.1 447.082,631.48C445.549,649.635 430.07,694.294 421.502,715.512C418.776,722.931 416.406,727.657 414.653,730.589C405.411,748.718 386.427,777.077 371.332,797.094C402.6,821.704 448.451,862.494 470.877,886.484C466.863,850.416 457.441,748.994 463.83,713.658C468.516,687.736 480.816,669.249 495.559,657.549C468.981,646.572 450.006,619.87 450.006,588.368C450.006,546.955 482.798,513.837 522.546,513.837C562.295,513.837 595.086,546.955 595.086,588.368C595.086,612.478 583.972,633.776 566.841,647.365C575.935,651.553 584.154,657.978 590.769,666.558C597.07,674.73 604.25,690.421 606.39,711.266C606.44,711.752 609.278,743.107 612.117,770.994C614.634,727.796 619.704,680.824 619.73,680.247C622.356,622.204 662.191,602.454 690.84,602.55C705.168,602.597 721.107,606.39 733.982,617.307C738.018,620.729 741.878,624.897 745.269,630.022C754.752,623.586 765.919,617.566 778.126,613.936C799.097,607.698 823.028,607.803 843.762,613.92C863.912,619.864 885.525,633.177 900.926,649.504C914.444,663.835 926.745,683.984 934.528,704.337C938.174,686.048 942.982,664.209 947.216,651.286C951.941,636.866 958.546,622.095 969.491,611.584C1018.923,564.105 1099.943,595.773 1095.834,660.975C1094.597,680.593 1085.269,701.411 1081.306,721.633C1077.881,739.106 1073.358,758.612 1073.34,774.453C1073.312,798.195 1077.839,813.134 1078.358,816.244C1078.707,818.339 1079.691,820.096 1081.467,820.968C1083.745,819.143 1089.951,813.828 1091.876,808.623C1096.42,796.336 1099.559,781.236 1101.73,767.468C1103.966,753.288 1104.579,738.478 1104.875,724.517C1105.215,708.487 1101.187,690.2 1103.765,676.428C1106.858,659.907 1116.396,641.394 1126.596,631.467C1138.014,620.354 1155.275,614.306 1171.209,614.306C1186.132,614.306 1208.997,619.949 1221.54,629.471C1234.611,639.393 1244.177,656.821 1248.013,673.516C1250.508,684.373 1251.255,701.441 1251.521,716.983C1259.326,696.837 1265.309,682.206 1265.415,681.891C1284.043,626.855 1327.794,618.934 1355.292,626.975C1369.043,630.996 1383.304,639.062 1392.645,653.123C1395.572,657.53 1398.124,662.606 1399.96,668.471C1410.857,664.919 1423.255,662.234 1435.991,662.133C1457.869,661.959 1480.831,668.7 1499.054,680.329C1516.763,691.632 1533.834,710.418 1544.1,730.377C1554.124,749.867 1560.704,775.855 1561.616,799.658C1562.573,824.625 1559.885,856.771 1550.56,883.306C1540.824,911.015 1521.969,945.299 1502.761,966.573C1483.667,987.721 1456.579,1005.179 1431.225,1013.363C1404.989,1021.832 1379.715,1025.203 1347.786,1015.377C1339.128,1012.713 1331.53,1009.461 1324.892,1005.929C1324.364,1023.096 1324.666,1041.354 1324.385,1055.677C1323.436,1103.989 1305.915,1127.04 1288.37,1138.675C1269.027,1151.502 1246.837,1151.198 1233.893,1149.226C1220.681,1147.213 1201.206,1140.753 1186.558,1122.006C1174.153,1106.129 1164.121,1080.027 1169.639,1036.081C1170.937,1025.738 1179.238,968.974 1186.849,932.276C1181.947,937.912 1176.87,943.047 1171.751,947.245C1151.306,964.013 1125.661,976.304 1099.468,979.921C1066.58,984.462 1018.515,969.683 997.334,955.252C976.694,941.19 960.467,924.688 951.785,906.446C946.327,894.98 940.294,880.91 935.348,866.649C932.757,874.282 929.874,881.474 926.747,887.895C914.27,913.512 893.089,937.8 871.002,952.698C848.147,968.114 824.8,978.364 791.398,977.783C782.341,977.626 774.139,976.61 766.782,975.059C771.037,991.699 776.394,1009.156 780.098,1022.995C792.591,1069.673 782.153,1096.68 768.526,1112.726C753.502,1130.417 732.098,1136.282 719.116,1137.978C705.864,1139.71 685.361,1138.908 666.087,1124.962C649.763,1113.15 632.882,1090.856 625.99,1047.104C624.471,1037.459 617.551,986.971 614.323,949.906C603.799,962.318 589.876,970.842 575.208,974.946C562.373,978.536 548.341,978.958 534.812,975.527C544.515,1020.389 517.375,1061.328 479.232,1074.303C450.615,1084.038 414.872,1079.117 383.961,1045.645C371.607,1032.266 371.242,1028.184 361.947,1016.877C350.105,1002.471 331.419,981.146 318.889,968.1C314.646,963.683 310.287,959.35 305.809,955.15C307.769,962.932 309.487,969.776 310.625,974.408C312.73,982.974 315.139,991.486 316.657,1000.175C320.582,1022.639 316.839,1041.52 308.882,1056.643C276.152,1118.844 167.346,1116.899 153.888,1034.782C153.666,1033.43 141.235,986.173 136.555,961.517C131.519,934.982 124.792,887.247 121.575,865.666C121.221,863.297 113.817,798.257 111.372,768.88C109.178,742.513 107.641,708.802 106.895,689.631C106.498,679.401 106.886,657.329 106.926,655.159C101.654,603.462 124.223,567.409 158.191,553.954C185.554,543.116 210.572,547.794 223.998,554.04C242.543,562.667 261.3,578.82 264.13,625.917C264.391,630.257 265.581,643.469 265.873,651.493C266.143,658.895 265.673,666.758 265.879,673.712C265.992,677.543 266.284,681.441 266.575,685.276ZM786.425,747.126C785.547,747.031 784.894,747.83 784.094,748.4C781.98,749.906 780.063,752.003 778.258,754.448C771.754,763.26 767.28,776.001 765.725,790.342C764.169,804.683 765.806,818.086 770.269,828.088C771.508,830.864 772.931,833.323 774.673,835.247C775.332,835.976 775.798,836.896 776.676,836.991C777.555,837.086 778.207,836.288 779.007,835.717C781.121,834.211 783.039,832.115 784.844,829.669C791.348,820.857 795.821,808.116 797.377,793.775C798.932,779.434 797.295,766.031 792.832,756.029C791.594,753.253 790.17,750.794 788.428,748.87C787.769,748.141 787.303,747.222 786.425,747.126ZM1409.263,790.418C1408.449,790.074 1407.595,790.65 1406.664,790.966C1404.206,791.799 1401.765,793.254 1399.332,795.075C1390.565,801.639 1382.61,812.55 1376.987,825.835C1371.365,839.119 1369.07,852.426 1370.461,863.289C1370.847,866.304 1371.501,869.069 1372.615,871.414C1373.036,872.301 1373.217,873.316 1374.031,873.661C1374.844,874.005 1375.699,873.428 1376.63,873.113C1379.088,872.28 1381.528,870.825 1383.961,869.003C1392.729,862.439 1400.684,851.528 1406.307,838.244C1411.929,824.96 1414.224,811.653 1412.833,800.79C1412.447,797.775 1411.792,795.01 1410.679,792.665C1410.258,791.777 1410.077,790.762 1409.263,790.418Z" style="fill:none;stroke:white;stroke-width:25px;"/>
        <g id="logo">
            <g id="kipup">
                <g id="k">
                    <path d="M146.301,861.979C145.954,859.651 138.69,795.693 136.286,766.807C134.122,740.806 132.611,707.564 131.876,688.66C131.42,676.91 132.132,655.752 131.876,653.384C127.733,614.979 142.252,587.157 167.398,577.197C186.548,569.611 204.056,572.336 213.453,576.707C226.262,582.666 237.22,594.886 239.175,627.417C239.43,631.657 240.604,644.565 240.89,652.404C241.158,659.748 240.686,667.552 240.89,674.452C241.081,680.913 241.747,687.558 242.115,693.805C242.47,699.846 242.705,705.894 243.095,711.933C243.487,718.016 243.854,723.507 244.466,730.306C244.697,732.867 245.979,743.425 246.342,747.968C246.382,748.458 247.241,753.173 247.994,752.598C258.57,744.518 284.802,708.586 291.844,689.64C303.862,671.076 315.512,619.814 316.587,600.959C317.028,593.217 318.187,584.398 318.057,579.402C317.498,558.032 333.132,544.508 345.371,541.37C367.375,535.727 385.649,542.312 390.82,544.469C391.804,544.88 392.314,545.131 392.284,545.105C393.77,545.696 395.255,546.404 396.729,547.231C405.038,551.894 412.969,560.322 418.496,572.543C425.148,587.25 423.096,618.409 422.17,629.376C420.758,646.099 405.981,687.254 398.163,706.543C390.723,726.967 396.177,710.386 395.468,712.423C388.614,732.126 349.207,788.059 336.675,799.878C336.127,800.395 334.568,801.191 335.205,801.593C359.427,816.899 425.047,874.006 452.792,903.747C483.19,936.331 500.262,955.179 505.216,965.725C534.335,1027.714 458.462,1089.47 402.327,1028.684C390.463,1015.836 390.186,1011.86 381.26,1001.002C369.066,986.169 349.821,964.215 336.919,950.782C326.551,939.987 315.525,929.673 303.848,920.405C292.171,911.137 266.984,894.232 266.857,895.173C266.837,895.322 266.519,900.464 267.102,903.012C270.35,917.212 282.192,963.462 286.347,980.373C288.317,988.39 290.61,996.346 292.03,1004.478C306.099,1085.003 190.287,1102.306 178.559,1030.739C178.335,1029.376 165.835,981.716 161.117,956.855C156.132,930.591 149.486,883.341 146.301,861.979Z" style="fill:rgb(32,178,240);"/>
                    <path d="M266.575,685.276C267.291,683.736 267.909,682.28 268.411,680.93C269.046,679.22 269.867,677.585 270.858,676.054C281.207,660.068 290.702,615.774 291.627,599.537C292.026,592.537 293.183,584.572 293.065,580.055C292.135,544.465 318.778,522.381 339.161,517.153C368.834,509.543 393.473,518.488 400.447,521.398C401.033,521.642 401.603,521.892 401.983,522.061C404.317,523.01 406.65,524.131 408.963,525.429C421.155,532.271 433.165,544.311 441.274,562.24C449.39,580.183 448.212,618.1 447.082,631.48C445.549,649.635 430.07,694.294 421.502,715.512C418.776,722.931 416.406,727.657 414.653,730.589C405.411,748.718 386.427,777.077 371.332,797.094C402.691,821.775 448.719,862.732 471.072,886.693C504.36,922.375 522.419,943.547 527.844,955.096C552.432,1007.439 523.114,1059.376 479.232,1074.303C450.615,1084.038 414.872,1079.117 383.961,1045.645C371.607,1032.266 371.242,1028.184 361.947,1016.877C350.105,1002.471 331.419,981.146 318.889,968.1C314.646,963.683 310.287,959.35 305.809,955.15C307.769,962.932 309.487,969.776 310.625,974.408C312.73,982.974 315.139,991.486 316.657,1000.175C320.582,1022.639 316.839,1041.52 308.882,1056.643C276.152,1118.844 167.346,1116.899 153.888,1034.782C153.666,1033.43 141.235,986.173 136.555,961.517C131.519,934.982 124.792,887.247 121.575,865.666C121.221,863.297 113.817,798.257 111.372,768.88C109.178,742.513 107.641,708.802 106.895,689.631C106.498,679.401 106.886,657.329 106.926,655.159C101.654,603.462 124.223,567.409 158.191,553.954C185.554,543.116 210.572,547.794 223.998,554.04C242.543,562.667 261.3,578.82 264.13,625.917C264.391,630.257 265.581,643.469 265.873,651.493C266.143,658.895 265.673,666.758 265.879,673.712C265.992,677.543 266.284,681.441 266.575,685.276ZM146.301,861.979C149.486,883.341 156.132,930.591 161.117,956.855C165.835,981.716 178.335,1029.376 178.559,1030.739C190.287,1102.306 306.099,1085.003 292.03,1004.478C290.61,996.346 288.317,988.39 286.347,980.373C282.192,963.462 270.35,917.212 267.102,903.012C266.519,900.464 266.837,895.322 266.857,895.173C266.984,894.232 292.171,911.137 303.848,920.405C315.525,929.673 326.551,939.987 336.919,950.782C349.821,964.215 369.066,986.169 381.26,1001.002C390.186,1011.86 390.463,1015.836 402.327,1028.684C458.462,1089.47 534.335,1027.714 505.216,965.725C500.262,955.179 483.19,936.331 452.792,903.747C425.047,874.006 359.427,816.899 335.205,801.593C334.568,801.191 336.127,800.395 336.675,799.878C349.207,788.059 388.614,732.126 395.468,712.423C396.177,710.386 390.723,726.967 398.163,706.543C405.981,687.254 420.758,646.099 422.17,629.376C423.096,618.409 425.148,587.25 418.496,572.543C412.969,560.322 405.038,551.894 396.729,547.231C395.255,546.404 393.77,545.696 392.284,545.105C392.314,545.131 391.804,544.88 390.82,544.469C385.649,542.312 367.375,535.727 345.371,541.37C333.132,544.508 317.498,558.032 318.057,579.402C318.187,584.398 317.028,593.217 316.587,600.959C315.512,619.814 303.862,671.076 291.844,689.64C284.802,708.586 258.57,744.518 247.994,752.598C247.241,753.173 246.382,748.458 246.342,747.968C245.979,743.425 244.697,732.867 244.466,730.306C243.854,723.507 243.487,718.016 243.095,711.933C242.705,705.894 242.47,699.846 242.115,693.805C241.747,687.558 241.081,680.913 240.89,674.452C240.686,667.552 241.158,659.748 240.89,652.404C240.604,644.565 239.43,631.657 239.175,627.417C237.22,594.886 226.262,582.666 213.453,576.707C204.056,572.336 186.548,569.611 167.398,577.197C142.252,587.157 127.733,614.979 131.876,653.384C132.132,655.752 131.42,676.91 131.876,688.66C132.611,707.564 134.122,740.806 136.286,766.807C138.69,795.693 145.954,859.651 146.301,861.979Z" style="fill:rgb(30,63,108);"/>
                </g>
                <g id="i">
                    <path d="M488.431,718.106C498.041,664.954 548.916,653.219 570.971,681.823C575.453,687.636 579.999,698.99 581.521,713.819C581.594,714.537 587.715,782.082 591.013,807.471C594.063,830.945 600.275,859.056 602.65,865.976C633.981,957.295 515.395,991.548 497.005,894.454C495.702,887.576 481.186,758.175 488.431,718.106Z" style="fill:rgb(238,113,80);"/>
                    <path d="M463.83,713.658C469.161,684.172 484.342,664.306 501.766,653.105C531.942,633.706 569.58,639.076 590.769,666.558C597.07,674.73 604.25,690.421 606.39,711.266C606.463,711.979 612.53,779.042 615.805,804.25C618.598,825.748 624.122,851.525 626.296,857.863C648.164,921.598 614.333,964 575.208,974.946C535.891,985.945 485.34,967.205 472.442,899.107C471.072,891.874 456.212,755.79 463.83,713.658ZM488.431,718.106C481.186,758.175 495.702,887.576 497.005,894.454C515.395,991.548 633.981,957.295 602.65,865.976C600.275,859.056 594.063,830.945 591.013,807.471C587.715,782.082 581.594,714.537 581.521,713.819C579.999,698.99 575.453,687.636 570.971,681.823C548.916,653.219 498.041,664.954 488.431,718.106Z" style="fill:rgb(30,63,108);"/>
                    <g transform="matrix(1.347072,0,0,1.403471,-200.335755,-232.936943)">
                        <circle cx="536.632" cy="585.195" r="35.291" style="fill:rgb(238,113,80);"/>
                        <path d="M536.632,532.091C566.139,532.091 590.482,555.688 590.482,585.195C590.482,614.703 566.139,638.3 536.632,638.3C507.125,638.3 482.782,614.703 482.782,585.195C482.782,555.688 507.125,532.091 536.632,532.091ZM536.632,549.904C517.154,549.904 501.341,565.718 501.341,585.195C501.341,604.673 517.154,620.487 536.632,620.487C556.11,620.487 571.924,604.673 571.924,585.195C571.924,565.718 556.11,549.904 536.632,549.904Z" style="fill:rgb(30,63,108);"/>
                    </g>
                </g>
                <g id="p">
                    <path d="M635.74,812.858C635.441,766.901 644.67,682.15 644.705,681.377C646.471,642.338 671.488,627.485 690.757,627.549C708.643,627.609 731.068,635.474 732.622,674.2C732.627,674.326 754.896,646.927 785.253,637.898C801.687,633.011 820.44,633.105 836.688,637.898C852.936,642.692 870.322,653.493 882.74,666.658C895.499,680.185 906.895,699.868 913.242,719.055C920.22,740.149 926.024,768.248 924.606,793.217C923.11,819.533 915.535,853.822 904.271,876.948C893.685,898.682 875.763,919.332 857.023,931.971C838.283,944.611 819.219,953.263 791.832,952.787C753.74,952.125 735.018,932.459 735.015,932.569C734.228,955.842 748.121,1000.216 755.947,1029.458C774.56,1099.002 733.42,1110.897 715.876,1113.189C698.333,1115.482 661.459,1111.604 650.686,1043.214C648.981,1032.392 640.321,969.055 638.126,933.168C635.778,894.766 636,852.969 635.74,812.858ZM789.121,722.272C766.669,719.837 745.049,749.129 740.871,787.646C736.692,826.162 751.528,859.409 773.98,861.845C796.432,864.281 818.053,834.988 822.231,796.472C826.409,757.955 811.573,724.708 789.121,722.272Z" style="fill:rgb(243,156,18);"/>
                    <path d="M745.269,630.022C754.752,623.586 765.919,617.566 778.126,613.936C799.097,607.698 823.028,607.803 843.762,613.92C863.912,619.864 885.525,633.177 900.926,649.504C915.965,665.447 929.496,688.589 936.977,711.204C944.824,734.925 951.161,766.555 949.565,794.635C947.899,823.958 939.298,862.127 926.747,887.895C914.27,913.512 893.089,937.8 871.002,952.698C848.147,968.114 824.8,978.364 791.398,977.783C782.341,977.626 774.139,976.61 766.782,975.059C771.037,991.699 776.394,1009.156 780.098,1022.995C792.591,1069.673 782.153,1096.68 768.526,1112.726C753.502,1130.417 732.098,1136.282 719.116,1137.978C705.864,1139.71 685.361,1138.908 666.087,1124.962C649.763,1113.15 632.882,1090.856 625.99,1047.104C624.249,1036.05 615.414,971.351 613.173,934.693C610.798,895.857 611.004,853.586 610.74,813.021C610.439,766.613 619.695,681.028 619.73,680.247C622.356,622.204 662.191,602.454 690.84,602.55C705.168,602.597 721.107,606.39 733.982,617.307C738.018,620.729 741.878,624.897 745.269,630.022ZM635.74,812.858C636,852.969 635.778,894.766 638.126,933.168C640.321,969.055 648.981,1032.392 650.686,1043.214C661.459,1111.604 698.333,1115.482 715.876,1113.189C733.42,1110.897 774.56,1099.002 755.947,1029.458C748.121,1000.216 734.228,955.842 735.015,932.569C735.018,932.459 753.74,952.125 791.832,952.787C819.219,953.263 838.283,944.611 857.023,931.971C875.763,919.332 893.685,898.682 904.271,876.948C915.535,853.822 923.11,819.533 924.606,793.217C926.024,768.248 920.22,740.149 913.242,719.055C906.895,699.868 895.499,680.185 882.74,666.658C870.322,653.493 852.936,642.692 836.688,637.898C820.44,633.105 801.687,633.011 785.253,637.898C754.896,646.927 732.627,674.326 732.622,674.2C731.068,635.474 708.643,627.609 690.757,627.549C671.488,627.485 646.471,642.338 644.705,681.377C644.67,682.15 635.441,766.901 635.74,812.858ZM789.121,722.272C811.573,724.708 826.409,757.955 822.231,796.472C818.053,834.988 796.432,864.281 773.98,861.845C751.528,859.409 736.692,826.162 740.871,787.646C745.049,749.129 766.669,719.837 789.121,722.272ZM786.425,747.126C785.547,747.031 784.894,747.83 784.094,748.4C781.98,749.906 780.063,752.003 778.258,754.448C771.754,763.26 767.28,776.001 765.725,790.342C764.169,804.683 765.806,818.086 770.269,828.088C771.508,830.864 772.931,833.323 774.673,835.247C775.332,835.976 775.798,836.896 776.676,836.991C777.555,837.086 778.207,836.288 779.007,835.717C781.121,834.211 783.039,832.115 784.844,829.669C791.348,820.857 795.821,808.116 797.377,793.775C798.932,779.434 797.295,766.031 792.832,756.029C791.594,753.253 790.17,750.794 788.428,748.87C787.769,748.141 787.303,747.222 786.425,747.126Z" style="fill:rgb(30,63,108);"/>
                </g>
                <g id="u">
                    <path d="M956.619,721.749C960.138,703.031 965.942,674.426 970.973,659.071C974.444,648.477 978.769,637.336 986.808,629.614C1019.311,598.396 1073.585,616.531 1070.883,659.403C1069.711,678 1060.53,697.654 1056.773,716.824C1053.041,735.867 1048.36,757.161 1048.34,774.424C1048.309,800.508 1053.129,816.94 1053.698,820.356C1056.074,834.6 1065.199,844.76 1080.875,846.384C1091.528,847.488 1108.532,835.66 1115.324,817.294C1120.398,803.574 1124,786.736 1126.425,771.361C1128.836,756.069 1129.551,740.102 1129.87,725.046C1130.181,710.368 1125.978,693.638 1128.338,681.028C1130.505,669.455 1136.887,656.337 1144.032,649.383C1150.956,642.645 1161.547,639.306 1171.209,639.306C1181.607,639.306 1197.684,642.748 1206.424,649.383C1215.163,656.018 1221.083,667.951 1223.648,679.114C1227.029,693.83 1226.583,721.027 1226.71,737.678C1226.816,751.478 1226.285,765.343 1224.414,779.017C1222.399,793.737 1218.831,810.736 1214.621,826C1210.437,841.169 1207.007,856.965 1199.151,870.598C1189.364,887.584 1173.082,913.821 1155.898,927.914C1138.949,941.814 1117.761,952.158 1096.048,955.156C1068.785,958.92 1028.969,946.555 1011.41,934.592C994.803,923.277 981.344,910.38 974.358,895.702C965.895,877.919 955.781,853.343 951.698,832.622C947.75,812.584 949.041,789.858 949.861,771.379C950.601,754.699 953.535,738.158 956.619,721.749Z" style="fill:rgb(241,196,15);"/>
                    <path d="M1081.467,820.968C1083.745,819.143 1089.951,813.828 1091.876,808.623C1096.42,796.336 1099.559,781.236 1101.73,767.468C1103.966,753.288 1104.579,738.478 1104.875,724.517C1105.215,708.487 1101.187,690.2 1103.765,676.428C1106.858,659.907 1116.396,641.394 1126.596,631.467C1138.014,620.354 1155.275,614.306 1171.209,614.306C1186.132,614.306 1208.997,619.949 1221.54,629.471C1234.611,639.393 1244.177,656.821 1248.013,673.516C1251.708,689.595 1251.57,719.293 1251.71,737.486C1251.825,752.483 1251.217,767.548 1249.183,782.407C1247.028,798.148 1243.223,816.327 1238.721,832.648C1233.977,849.845 1229.718,867.623 1220.812,883.08C1209.803,902.187 1191.081,931.392 1171.751,947.245C1151.306,964.013 1125.661,976.304 1099.468,979.921C1066.58,984.462 1018.515,969.683 997.334,955.252C976.694,941.19 960.467,924.688 951.785,906.446C942.535,887.012 931.632,860.1 927.17,837.455C922.838,815.47 923.986,790.544 924.886,770.27C925.678,752.414 928.748,734.696 932.05,717.13C935.747,697.461 941.929,667.422 947.216,651.286C951.941,636.866 958.546,622.095 969.491,611.584C1018.923,564.105 1099.943,595.773 1095.834,660.975C1094.597,680.593 1085.269,701.411 1081.306,721.633C1077.881,739.106 1073.358,758.612 1073.34,774.453C1073.312,798.195 1077.839,813.134 1078.358,816.244C1078.707,818.339 1079.691,820.096 1081.467,820.968ZM956.619,721.749C953.535,738.158 950.601,754.699 949.861,771.379C949.041,789.858 947.75,812.584 951.698,832.622C955.781,853.343 965.895,877.919 974.358,895.702C981.344,910.38 994.803,923.277 1011.41,934.592C1028.969,946.555 1068.785,958.92 1096.048,955.156C1117.761,952.158 1138.949,941.814 1155.898,927.914C1173.082,913.821 1189.364,887.584 1199.151,870.598C1207.007,856.965 1210.437,841.169 1214.621,826C1218.831,810.736 1222.399,793.737 1224.414,779.017C1226.285,765.343 1226.816,751.478 1226.71,737.678C1226.583,721.027 1227.029,693.83 1223.648,679.114C1221.083,667.951 1215.163,656.018 1206.424,649.383C1197.684,642.748 1181.607,639.306 1171.209,639.306C1161.547,639.306 1150.956,642.645 1144.032,649.383C1136.887,656.337 1130.505,669.455 1128.338,681.028C1125.978,693.638 1130.181,710.368 1129.87,725.046C1129.551,740.102 1128.836,756.069 1126.425,771.361C1124,786.736 1120.398,803.574 1115.324,817.294C1108.532,835.66 1091.528,847.488 1080.875,846.384C1065.199,844.76 1056.074,834.6 1053.698,820.356C1053.129,816.94 1048.309,800.508 1048.34,774.424C1048.36,757.161 1053.041,735.867 1056.773,716.824C1060.53,697.654 1069.711,678 1070.883,659.403C1073.585,616.531 1019.311,598.396 986.808,629.614C978.769,637.336 974.444,648.477 970.973,659.071C965.942,674.426 960.138,703.031 956.619,721.749Z" style="fill:rgb(30,63,108);"/>
                </g>
                <g id="p1" serif:id="p" transform="matrix(0.960735,0.277466,-0.277466,0.960735,858.763783,-143.600581)">
                    <path d="M635.74,812.858C635.441,766.901 644.67,682.15 644.705,681.377C646.471,642.338 671.488,627.485 690.757,627.549C708.643,627.609 731.068,635.474 732.622,674.2C732.627,674.326 754.896,646.927 785.253,637.898C801.687,633.011 820.44,633.105 836.688,637.898C852.936,642.692 870.322,653.493 882.74,666.658C895.499,680.185 906.895,699.868 913.242,719.055C920.22,740.149 926.024,768.248 924.606,793.217C923.11,819.533 915.535,853.822 904.271,876.948C893.685,898.682 875.763,919.332 857.023,931.971C838.283,944.611 819.219,953.263 791.832,952.787C753.74,952.125 735.018,932.459 735.015,932.569C734.228,955.842 748.121,1000.216 755.947,1029.458C774.56,1099.002 733.42,1110.897 715.876,1113.189C698.333,1115.482 661.459,1111.604 650.686,1043.214C648.981,1032.392 640.321,969.055 638.126,933.168C635.778,894.766 636,852.969 635.74,812.858ZM789.121,722.272C766.669,719.837 745.049,749.129 740.871,787.646C736.692,826.162 751.528,859.409 773.98,861.845C796.432,864.281 818.053,834.988 822.231,796.472C826.409,757.955 811.573,724.708 789.121,722.272Z" style="fill:rgb(238,113,80);"/>
                    <path d="M745.269,630.022C754.752,623.586 765.919,617.566 778.126,613.936C799.097,607.698 823.028,607.803 843.762,613.92C863.912,619.864 885.525,633.177 900.926,649.504C915.965,665.447 929.496,688.589 936.977,711.204C944.824,734.925 951.161,766.555 949.565,794.635C947.899,823.958 939.298,862.127 926.747,887.895C914.27,913.512 893.089,937.8 871.002,952.698C848.147,968.114 824.8,978.364 791.398,977.783C782.341,977.626 774.139,976.61 766.782,975.059C771.037,991.699 776.394,1009.156 780.098,1022.995C792.591,1069.673 782.153,1096.68 768.526,1112.726C753.502,1130.417 732.098,1136.282 719.116,1137.978C705.864,1139.71 685.361,1138.908 666.087,1124.962C649.763,1113.15 632.882,1090.856 625.99,1047.104C624.249,1036.05 615.414,971.351 613.173,934.693C610.798,895.857 611.004,853.586 610.74,813.021C610.439,766.613 619.695,681.028 619.73,680.247C622.356,622.204 662.191,602.454 690.84,602.55C705.168,602.597 721.107,606.39 733.982,617.307C738.018,620.729 741.878,624.897 745.269,630.022ZM635.74,812.858C636,852.969 635.778,894.766 638.126,933.168C640.321,969.055 648.981,1032.392 650.686,1043.214C661.459,1111.604 698.333,1115.482 715.876,1113.189C733.42,1110.897 774.56,1099.002 755.947,1029.458C748.121,1000.216 734.228,955.842 735.015,932.569C735.018,932.459 753.74,952.125 791.832,952.787C819.219,953.263 838.283,944.611 857.023,931.971C875.763,919.332 893.685,898.682 904.271,876.948C915.535,853.822 923.11,819.533 924.606,793.217C926.024,768.248 920.22,740.149 913.242,719.055C906.895,699.868 895.499,680.185 882.74,666.658C870.322,653.493 852.936,642.692 836.688,637.898C820.44,633.105 801.687,633.011 785.253,637.898C754.896,646.927 732.627,674.326 732.622,674.2C731.068,635.474 708.643,627.609 690.757,627.549C671.488,627.485 646.471,642.338 644.705,681.377C644.67,682.15 635.441,766.901 635.74,812.858ZM789.121,722.272C811.573,724.708 826.409,757.955 822.231,796.472C818.053,834.988 796.432,864.281 773.98,861.845C751.528,859.409 736.692,826.162 740.871,787.646C745.049,749.129 766.669,719.837 789.121,722.272ZM786.425,747.126C785.546,747.031 784.894,747.83 784.094,748.4C781.98,749.906 780.063,752.003 778.258,754.448C771.754,763.26 767.28,776.001 765.725,790.342C764.169,804.683 765.806,818.086 770.269,828.088C771.508,830.864 772.931,833.323 774.673,835.247C775.332,835.976 775.798,836.896 776.676,836.991C777.555,837.086 778.207,836.288 779.007,835.717C781.121,834.211 783.039,832.115 784.844,829.669C791.348,820.857 795.821,808.116 797.377,793.775C798.932,779.434 797.295,766.031 792.832,756.029C791.594,753.253 790.17,750.794 788.428,748.87C787.769,748.141 787.303,747.222 786.425,747.126Z" style="fill:rgb(30,63,108);"/>
                </g>
            </g>
            <g id="light">
                <path id="k1" serif:id="k" d="M175.907,592.243C179.513,590.21 184.091,591.488 186.124,595.094C188.157,598.699 186.879,603.277 183.273,605.31C174.997,609.975 170.039,618.658 167.105,629.965C163.756,642.867 163.146,659.002 164.333,677.235C164.602,681.366 161.467,684.938 157.336,685.207C153.206,685.476 149.634,682.341 149.365,678.21C147.785,653.95 149.384,633.066 155.296,617.677C159.714,606.175 166.516,597.537 175.907,592.243ZM151.516,711.659C151.263,707.527 154.412,703.968 158.544,703.715C162.675,703.462 166.235,706.611 166.488,710.742L167.407,725.747C167.66,729.879 164.511,733.438 160.379,733.691C156.248,733.944 152.688,730.795 152.435,726.664L151.516,711.659ZM377.832,558.171C381.574,559.941 383.176,564.415 381.406,568.157C379.637,571.9 375.453,572.665 371.42,571.732C366.97,570.703 357.298,571.066 354.25,573.072C351.103,575.141 348.264,586.695 347.498,598.16C347.055,604.788 346.704,614.1 344.108,624.582C338.524,647.129 334.969,655.217 328.345,671.959C326.823,675.808 313.211,698.078 309.362,696.556C305.513,695.033 315.383,671.042 316.906,667.193C322.44,653.204 324.009,647.917 328.055,627.526C329.175,621.884 332.33,609.931 332.549,599.393C332.998,577.765 336.287,569.132 344.158,561.974C352.838,554.081 365.065,552.136 377.832,558.171ZM354.376,849.618C351.254,846.9 346.3,842.613 348.794,839.309C351.288,836.005 364.61,844.072 368.118,846.27C390.705,860.419 417.3,882.593 444.88,920.567C447.313,923.917 447.442,926.534 444.245,929.164C441.049,931.794 436.454,931.217 433.688,928.137C407.484,898.96 381.566,873.29 354.376,849.618ZM452.804,954.647C450.522,951.194 450.885,945.165 454.339,942.883C457.792,940.601 462.645,940.768 464.927,944.222L472.475,953.193C474.757,956.646 473.806,964.831 470.353,967.113C466.899,969.395 462.047,967.072 459.765,963.618L452.804,954.647Z" style="fill:white;fill-opacity:0.36;"/>
                <path id="i1" serif:id="i" d="M522.644,685.147C525.558,682.207 529.699,683.717 532.638,686.631C535.578,689.545 536.211,692.767 533.297,695.707C521.623,707.483 515.121,735.356 514.905,756.49C514.863,760.629 513.34,768.305 509.228,768.777C505.116,769.249 505.068,758.638 504.596,754.526C501.2,724.925 508.715,699.198 522.644,685.147ZM523.036,569.281C518.906,568.999 515.782,565.417 516.064,561.288C516.345,557.158 519.927,554.034 524.057,554.315C531.226,554.805 537.896,558.542 542.241,561.918C548.533,566.809 551.299,572.874 552.949,582.938C553.619,587.023 550.847,590.883 546.762,591.553C542.677,592.223 538.253,589.504 538.147,585.366C537.988,579.145 537.258,575.929 533.663,573.135C531.417,571.39 526.742,569.534 523.036,569.281Z" style="fill:white;fill-opacity:0.36;"/>
                <path id="p2" serif:id="p" d="M683.528,647.442C687.362,645.882 695.722,644.973 697.282,648.807C698.842,652.641 694.546,658.551 690.712,660.111C684.369,662.692 680.05,664.541 677.652,673.789C672.732,692.765 673.659,706.4 669.662,732.955C669.046,737.048 666.204,748.678 662.065,748.624C657.926,748.57 657.978,738.123 658.032,733.984C658.191,721.768 657.872,708.942 658.446,699.602C659.127,688.524 661.554,678.902 665.156,669.394C670.296,655.826 673.895,651.361 683.528,647.442ZM789.055,669.599C784.934,669.994 779.7,668.93 779.304,664.81C778.908,660.689 787.616,657.219 791.736,656.823C832.593,652.899 855.029,661.561 874.887,688.109C877.366,691.424 877.628,700.994 874.029,703.038C870.43,705.082 866.044,699.508 863.999,695.909C850.19,671.595 823.196,666.32 789.055,669.599ZM880.263,733.71C879.147,729.724 879.486,721.6 883.473,720.484C887.459,719.368 891.601,724.049 892.717,728.036L894.285,736.071C893.86,739.35 892.995,743.058 890.453,743.764C886.855,744.763 883.417,743.732 882.301,739.745L880.263,733.71ZM821.017,844.481C822.88,840.784 825.679,837.825 829.375,839.688C833.072,841.551 829.88,853.414 828.017,857.11C812.527,887.849 794.789,894.654 763.498,885.426C759.528,884.255 756.765,881.306 757.936,877.336C759.107,873.365 764.261,872.317 768.231,873.488C791.925,880.476 809.288,867.757 821.017,844.481Z" style="fill:white;fill-opacity:0.36;"/>
                <path id="u1" serif:id="u" d="M987.814,720.693C987.323,724.804 983.433,732.776 979.323,732.285C975.213,731.793 974.059,724.593 974.102,720.454C974.321,699.255 986.259,663.292 996.503,650.175C1004.148,640.386 1009.699,635.179 1017.655,632.945C1024.022,631.158 1032.684,631.931 1037.186,633.821C1041.002,635.424 1043.998,641.429 1041.864,642.767C1033.286,648.145 1026.192,642.245 1020.733,647.13C1019.448,648.281 1013.615,652.634 1008.325,659.407C999.143,671.165 990.037,702.106 987.814,720.693ZM1031.205,836.142C1030.044,832.169 1027.937,823.297 1031.91,822.136C1035.883,820.974 1038.881,824.959 1040.429,828.798C1048.339,848.416 1055.1,857.116 1071.595,858.938C1075.709,859.392 1080.929,860.685 1081.293,864.808C1081.657,868.931 1072.711,872.942 1068.681,871.998C1046.836,866.881 1039.572,864.766 1031.205,836.142ZM1162.371,674.536C1158.801,676.631 1155.143,676.217 1153.048,672.646C1150.953,669.076 1152.935,664.79 1156.506,662.696C1165.048,657.684 1170.919,655.197 1178.704,656.244C1186.511,657.295 1190.586,660.336 1197.593,667.791C1200.427,670.807 1202.789,675.994 1199.773,678.829C1196.757,681.664 1192.947,680.296 1190.112,677.28C1185.852,672.748 1181.921,670.652 1177.174,670.013C1172.404,669.371 1167.605,671.466 1162.371,674.536Z" style="fill:white;fill-opacity:0.36;"/>
                <g id="p3" serif:id="p" transform="matrix(0.963079,0.269217,-0.269217,0.963079,852.755898,-136.922464)">
                    <path d="M683.528,647.442C687.362,645.882 695.722,644.973 697.282,648.807C698.842,652.641 694.546,658.551 690.712,660.111C684.369,662.692 680.05,664.541 677.652,673.789C672.732,692.765 673.659,706.4 669.662,732.955C669.046,737.048 666.204,748.678 662.065,748.624C657.926,748.57 657.978,738.123 658.032,733.984C658.191,721.768 657.872,708.942 658.446,699.602C659.127,688.524 661.554,678.902 665.156,669.394C670.296,655.826 673.895,651.361 683.528,647.442ZM789.055,669.599C784.934,669.994 779.7,668.93 779.304,664.81C778.908,660.689 787.616,657.219 791.736,656.823C832.593,652.899 855.029,661.561 874.887,688.109C877.366,691.424 877.628,700.994 874.029,703.038C870.43,705.082 866.044,699.508 863.999,695.909C850.19,671.595 823.196,666.32 789.055,669.599ZM880.263,733.71C879.147,729.724 879.486,721.6 883.473,720.484C887.459,719.368 891.601,724.049 892.717,728.036L894.285,736.071C893.86,739.35 892.995,743.058 890.453,743.764C886.855,744.763 883.417,743.732 882.301,739.745L880.263,733.71ZM821.017,844.481C822.88,840.784 825.679,837.825 829.375,839.688C833.072,841.551 829.88,853.414 828.017,857.11C812.527,887.849 794.789,894.654 763.498,885.426C759.528,884.255 756.765,881.306 757.936,877.336C759.107,873.365 764.261,872.317 768.231,873.488C791.925,880.476 809.288,867.757 821.017,844.481Z" style="fill:white;fill-opacity:0.36;"/>
                </g>
            </g>
        </g>
    </g>
</svg>
