<?xml version="1.0" encoding="UTF-8" standalone="no"?>
<!DOCTYPE svg PUBLIC "-//W3C//DTD SVG 1.1//EN" "http://www.w3.org/Graphics/SVG/1.1/DTD/svg11.dtd">
<svg width="100%" height="100%" viewBox="0 0 1427 1357" version="1.1" xmlns="http://www.w3.org/2000/svg" xmlns:xlink="http://www.w3.org/1999/xlink" xml:space="preserve" xmlns:serif="http://www.serif.com/" style="fill-rule:evenodd;clip-rule:evenodd;stroke-linejoin:round;stroke-miterlimit:2;">
    <g transform="matrix(1,0,0,1,-1814.808438,-148.0021)">
        <g id="highlight" transform="matrix(2.099857,0,0,2.099857,1249.175349,-884.464599)">
            <path d="M427.721,665.985C429.311,662.97 430.621,660.156 431.54,657.683C432.146,656.054 432.927,654.497 433.871,653.039C444.299,636.93 453.897,592.305 454.829,575.943C455.23,568.908 456.387,560.902 456.269,556.362C455.356,521.448 481.475,499.771 501.471,494.643C530.78,487.127 555.117,495.959 562.004,498.833C562.592,499.079 563.165,499.33 563.527,499.491C565.823,500.424 568.119,501.527 570.397,502.805C582.404,509.543 594.22,521.411 602.206,539.069C610.252,556.857 609.032,594.454 607.912,607.719C606.385,625.8 590.95,670.274 582.408,691.423C579.266,700.031 577.826,703.302 577.451,704.026C577.154,704.599 576.811,705.147 576.425,705.664L575.321,707.144C566.136,725.235 546.79,754.019 531.814,773.694C555.412,792.185 587.909,820.501 612.084,843.649C612.03,833.384 611.995,823.145 611.929,813.013C611.628,766.627 620.883,681.081 620.918,680.3C623.503,623.162 662.634,603.644 690.836,603.738C704.908,603.785 720.568,607.492 733.214,618.214C737.441,621.799 741.429,626.202 744.877,631.653C754.504,625.025 765.94,618.801 778.465,615.075C799.22,608.902 822.905,609.006 843.426,615.06C863.39,620.95 884.802,634.143 900.061,650.32C914.991,666.148 928.421,689.125 935.849,711.577C943.654,735.174 949.965,766.636 948.378,794.568C946.721,823.748 938.168,861.732 925.678,887.375C913.291,912.806 892.265,936.922 870.338,951.712C847.678,966.996 824.534,977.171 791.418,976.595C781.724,976.426 773.03,975.257 765.322,973.503C769.623,990.774 775.106,1008.942 778.949,1023.302C791.29,1069.413 781.082,1096.105 767.62,1111.956C752.827,1129.374 731.744,1135.129 718.962,1136.8C705.923,1138.504 685.748,1137.721 666.784,1123.998C651.382,1112.854 635.535,1092.253 628.181,1052.835C602.443,1057.286 572.963,1049.454 546.85,1021.177C534.519,1007.824 534.158,1003.747 524.881,992.461C513.022,978.035 494.31,956.679 481.762,943.615C476.58,938.22 471.225,932.952 465.694,927.895C468.054,937.263 470.161,945.64 471.486,951.03C473.584,959.571 475.988,968.055 477.501,976.718C481.373,998.88 477.695,1017.508 469.845,1032.428C437.586,1093.734 330.34,1091.863 317.076,1010.929C316.855,1009.576 304.42,962.299 299.738,937.634C294.705,911.112 287.982,863.4 284.766,841.829C284.413,839.463 277.015,774.473 274.572,745.12C272.379,718.77 270.843,685.081 270.099,665.924C269.663,654.716 270.462,634.536 270.218,632.276C264.659,580.75 286.907,544.761 320.644,531.398C347.616,520.714 372.278,525.3 385.512,531.456C403.783,539.957 422.17,555.924 424.958,602.327C425.219,606.662 426.408,619.86 426.7,627.875C426.97,635.274 426.5,643.135 426.706,650.086C426.862,655.373 427.358,660.786 427.721,665.985ZM786.553,745.944C784.232,745.693 782.55,747.88 780.573,749.88C772.14,758.409 766.385,773.234 764.543,790.214C762.701,807.193 765.143,822.907 771.551,833.046C773.054,835.424 774.227,837.921 776.548,838.173C778.869,838.425 780.551,836.237 782.528,834.237C790.961,825.708 796.717,810.883 798.558,793.904C800.4,776.924 797.958,761.21 791.55,751.071C790.048,748.694 788.874,746.196 786.553,745.944Z" style="fill:white;"/>
        </g>
        <g id="logo" transform="matrix(1,0,0,1,-30.846574,64.673966)">
            <g id="p">
                <g id="p1" serif:id="p" transform="matrix(2.099857,0,0,2.099857,1280.021923,-949.138565)">
                    <path d="M635.74,812.858C635.441,766.901 644.67,682.15 644.705,681.377C646.471,642.338 671.488,627.485 690.757,627.549C708.643,627.609 731.068,635.474 732.622,674.2C732.627,674.326 754.896,646.927 785.253,637.898C801.687,633.011 820.44,633.105 836.688,637.898C852.936,642.692 870.322,653.493 882.74,666.658C895.499,680.185 906.895,699.868 913.242,719.055C920.22,740.149 926.024,768.248 924.606,793.217C923.11,819.533 915.535,853.822 904.271,876.948C893.685,898.682 875.763,919.332 857.023,931.971C838.283,944.611 819.219,953.263 791.832,952.787C753.74,952.125 735.018,932.459 735.015,932.569C734.228,955.842 748.121,1000.216 755.947,1029.458C774.56,1099.002 733.42,1110.897 715.876,1113.189C698.333,1115.482 661.459,1111.604 650.686,1043.214C648.981,1032.392 640.321,969.055 638.126,933.168C635.778,894.766 636,852.969 635.74,812.858ZM789.121,722.272C766.669,719.837 745.049,749.129 740.871,787.646C736.692,826.162 751.528,859.409 773.98,861.845C796.432,864.281 818.053,834.988 822.231,796.472C826.409,757.955 811.573,724.708 789.121,722.272Z" style="fill:rgb(243,156,18);"/>
                    <path d="M740.448,649.983C750.802,641.292 765.252,631.426 781.859,626.487C800.453,620.956 821.673,621.056 840.057,626.479C858.163,631.821 877.562,643.818 891.401,658.489C905.245,673.166 917.658,694.497 924.545,715.316C931.937,737.661 937.995,767.442 936.492,793.893C934.915,821.64 926.851,857.777 914.974,882.162C903.488,905.744 884.014,928.127 863.68,941.842C842.98,955.804 821.876,965.217 791.625,964.691C773.747,964.38 759.632,960.33 749.203,955.683C753.324,978.091 761.999,1006.018 767.448,1026.38C778.271,1066.817 770.35,1090.349 758.545,1104.25C746.073,1118.935 728.196,1123.586 717.419,1124.994C706.514,1126.42 689.624,1125.83 673.763,1114.353C659.308,1103.893 645.028,1083.811 638.925,1045.067C637.203,1034.134 628.46,970.149 626.243,933.894C623.882,895.285 624.096,853.262 623.835,812.936C623.535,766.764 632.776,681.615 632.811,680.838C634.987,632.756 667.064,615.565 690.797,615.644C702.304,615.682 715.173,618.526 725.514,627.294C731.569,632.429 736.953,639.679 740.448,649.983ZM635.74,812.858C636,852.969 635.778,894.766 638.126,933.168C640.321,969.055 648.981,1032.392 650.686,1043.214C661.459,1111.604 698.333,1115.482 715.876,1113.189C733.42,1110.897 774.56,1099.002 755.947,1029.458C748.121,1000.216 734.228,955.842 735.015,932.569C735.018,932.459 753.74,952.125 791.832,952.787C819.219,953.263 838.283,944.611 857.023,931.971C875.763,919.332 893.685,898.682 904.271,876.948C915.535,853.822 923.11,819.533 924.606,793.217C926.024,768.248 920.22,740.149 913.242,719.055C906.895,699.868 895.499,680.185 882.74,666.658C870.322,653.493 852.936,642.692 836.688,637.898C820.44,633.105 801.687,633.011 785.253,637.898C754.896,646.927 732.627,674.326 732.622,674.2C731.068,635.474 708.643,627.609 690.757,627.549C671.488,627.485 646.471,642.338 644.705,681.377C644.67,682.15 635.441,766.901 635.74,812.858ZM789.121,722.272C811.573,724.708 826.409,757.955 822.231,796.472C818.053,834.988 796.432,864.281 773.98,861.845C751.528,859.409 736.692,826.162 740.871,787.646C745.049,749.129 766.669,719.837 789.121,722.272ZM787.837,734.108C782.201,733.497 776.909,736.653 772.107,741.51C762.152,751.577 754.881,768.886 752.707,788.93C750.532,808.973 753.923,827.438 761.487,839.407C765.136,845.18 769.628,849.397 775.264,850.009C780.9,850.62 786.192,847.464 790.994,842.608C800.949,832.54 808.22,815.231 810.395,795.188C812.569,775.144 809.178,756.679 801.614,744.71C797.965,738.937 793.473,734.72 787.837,734.108Z" style="fill:rgb(30,63,108);"/>
                </g>
                <g id="p-light" transform="matrix(2.099857,0,0,2.099857,1280.021923,-949.138565)">
                    <path d="M683.528,647.442C687.362,645.882 695.722,644.973 697.282,648.807C698.842,652.641 694.546,658.551 690.712,660.111C684.369,662.692 680.05,664.541 677.652,673.789C672.732,692.765 673.659,706.4 669.662,732.955C669.046,737.048 666.204,748.678 662.065,748.624C657.926,748.57 657.978,738.123 658.032,733.984C658.191,721.768 657.872,708.942 658.446,699.602C659.127,688.524 661.554,678.902 665.156,669.394C670.296,655.826 673.895,651.361 683.528,647.442ZM789.055,669.599C784.934,669.994 779.7,668.93 779.304,664.81C778.908,660.689 787.616,657.219 791.736,656.823C832.593,652.899 855.029,661.561 874.887,688.109C877.366,691.424 877.628,700.994 874.029,703.038C870.43,705.082 866.044,699.508 863.999,695.909C850.19,671.595 823.196,666.32 789.055,669.599ZM880.263,733.71C879.147,729.724 879.486,721.6 883.473,720.484C887.459,719.368 891.601,724.049 892.717,728.036L894.285,736.071C893.86,739.35 892.995,743.058 890.453,743.764C886.855,744.763 883.417,743.732 882.301,739.745L880.263,733.71ZM821.017,844.481C822.88,840.784 825.679,837.825 829.375,839.688C833.072,841.551 829.88,853.414 828.017,857.11C812.527,887.849 794.789,894.654 763.498,885.426C759.528,884.255 756.765,881.306 757.936,877.336C759.107,873.365 764.261,872.317 768.231,873.488C791.925,880.476 809.288,867.757 821.017,844.481Z" style="fill:white;fill-opacity:0.36;"/>
                </g>
            </g>
            <g id="k">
                <g id="k1" serif:id="k" transform="matrix(2.099857,0,0,2.099857,1620.230668,-998.824248)">
                    <path d="M146.301,861.979C145.954,859.651 138.69,795.693 136.286,766.807C134.122,740.806 132.611,707.564 131.876,688.66C131.42,676.91 132.132,655.752 131.876,653.384C127.733,614.979 142.252,587.157 167.398,577.197C186.548,569.611 204.056,572.336 213.453,576.707C226.262,582.666 237.22,594.886 239.175,627.417C239.43,631.657 240.604,644.565 240.89,652.404C241.158,659.748 240.686,667.552 240.89,674.452C241.081,680.913 241.747,687.558 242.115,693.805C242.47,699.846 242.705,705.894 243.095,711.933C243.487,718.016 243.854,723.507 244.466,730.306C244.697,732.867 245.979,743.425 246.342,747.968C246.382,748.458 247.241,753.173 247.994,752.598C258.57,744.518 284.802,708.586 291.844,689.64C303.862,671.076 315.512,619.814 316.587,600.959C317.028,593.217 318.187,584.398 318.057,579.402C317.498,558.032 333.132,544.508 345.371,541.37C367.375,535.727 385.649,542.312 390.82,544.469C391.804,544.88 392.314,545.131 392.284,545.105C393.77,545.696 395.255,546.404 396.729,547.231C405.038,551.894 412.969,560.322 418.496,572.543C425.148,587.25 423.096,618.409 422.17,629.376C420.758,646.099 405.981,687.254 398.163,706.543C390.723,726.967 396.177,710.386 395.468,712.423C388.614,732.126 349.207,788.059 336.675,799.878C336.127,800.395 334.568,801.191 335.205,801.593C359.427,816.899 425.047,874.006 452.792,903.747C483.19,936.331 500.262,955.179 505.216,965.725C534.335,1027.714 458.462,1089.47 402.327,1028.684C390.463,1015.836 390.186,1011.86 381.26,1001.002C369.066,986.169 349.821,964.215 336.919,950.782C326.551,939.987 315.525,929.673 303.848,920.405C292.171,911.137 266.984,894.232 266.857,895.173C266.837,895.322 266.519,900.464 267.102,903.012C270.35,917.212 282.192,963.462 286.347,980.373C288.317,988.39 290.61,996.346 292.03,1004.478C306.099,1085.003 190.287,1102.306 178.559,1030.739C178.335,1029.376 165.835,981.716 161.117,956.855C156.132,930.591 149.486,883.341 146.301,861.979Z" style="fill:rgb(32,178,240);"/>
                    <path d="M256.049,726.084C265.925,713.125 276.676,696.277 280.685,685.492C280.987,684.678 281.378,683.899 281.85,683.17C293.073,665.834 303.697,617.89 304.7,600.282C305.122,592.894 306.28,584.481 306.155,579.713C305.42,551.571 326.296,533.971 342.414,529.837C368.07,523.258 389.375,530.966 395.404,533.482C395.997,533.729 396.57,533.983 396.862,534.114C398.765,534.879 400.668,535.79 402.555,536.849C412.713,542.549 422.587,552.698 429.343,567.636C436.692,583.884 435.057,618.263 434.034,630.378C432.564,647.78 417.458,690.596 409.278,710.815C406.442,718.593 405.202,721.561 404.866,722.208L403.138,724.526C392.874,745.138 368.016,781.166 352.975,799.48C382.79,821.591 436.836,869.191 461.498,895.626C493.271,929.684 510.814,949.64 515.992,960.664C536.852,1005.071 512.244,1049.242 475.015,1061.906C450.5,1070.245 420.062,1065.436 393.581,1036.761C381.483,1023.661 381.165,1019.634 372.063,1008.562C360.037,993.932 341.058,972.278 328.333,959.029C318.334,948.619 307.707,938.668 296.447,929.73C293.224,927.173 288.491,923.778 283.569,920.361C288.41,939.818 295.021,965.778 297.909,977.532C299.943,985.811 302.291,994.031 303.758,1002.429C307.101,1021.562 304.071,1037.665 297.294,1050.545C269.755,1102.882 178.133,1101.758 166.81,1032.665C166.587,1031.307 154.12,983.838 149.42,959.075C144.411,932.682 137.726,885.201 134.526,863.735C134.176,861.387 126.845,796.914 124.421,767.794C122.243,741.619 120.72,708.153 119.98,689.123C119.534,677.644 120.289,656.975 120.04,654.661C115.189,609.699 133.575,577.789 163.013,566.128C186.074,556.994 207.16,560.649 218.475,565.912C234.012,573.141 248.688,587.243 251.059,626.702C251.317,630.99 252.498,644.043 252.787,651.97C253.056,659.342 252.585,667.174 252.79,674.1C252.978,680.445 253.639,686.97 254,693.105C254.354,699.124 254.588,705.15 254.975,711.167C255.299,716.182 255.604,720.788 256.049,726.084ZM146.301,861.979C149.486,883.341 156.132,930.591 161.117,956.855C165.835,981.716 178.335,1029.376 178.559,1030.739C190.287,1102.306 306.099,1085.003 292.03,1004.478C290.61,996.346 288.317,988.39 286.347,980.373C282.192,963.462 270.35,917.212 267.102,903.012C266.519,900.464 266.837,895.322 266.857,895.173C266.984,894.232 292.171,911.137 303.848,920.405C315.525,929.673 326.551,939.987 336.919,950.782C349.821,964.215 369.066,986.169 381.26,1001.002C390.186,1011.86 390.463,1015.836 402.327,1028.684C458.462,1089.47 534.335,1027.714 505.216,965.725C500.262,955.179 483.19,936.331 452.792,903.747C425.047,874.006 359.427,816.899 335.205,801.593C334.568,801.191 336.127,800.395 336.675,799.878C349.207,788.059 388.614,732.126 395.468,712.423C396.177,710.386 390.723,726.967 398.163,706.543C405.981,687.254 420.758,646.099 422.17,629.376C423.096,618.409 425.148,587.25 418.496,572.543C412.969,560.322 405.038,551.894 396.729,547.231C395.255,546.404 393.77,545.696 392.284,545.105C392.314,545.131 391.804,544.88 390.82,544.469C385.649,542.312 367.375,535.727 345.371,541.37C333.132,544.508 317.498,558.032 318.057,579.402C318.187,584.398 317.028,593.217 316.587,600.959C315.512,619.814 303.862,671.076 291.844,689.64C284.802,708.586 258.57,744.518 247.994,752.598C247.241,753.173 246.382,748.458 246.342,747.968C245.979,743.425 244.697,732.867 244.466,730.306C243.854,723.507 243.487,718.016 243.095,711.933C242.705,705.894 242.47,699.846 242.115,693.805C241.747,687.558 241.081,680.913 240.89,674.452C240.686,667.552 241.158,659.748 240.89,652.404C240.604,644.565 239.43,631.657 239.175,627.417C237.22,594.886 226.262,582.666 213.453,576.707C204.056,572.336 186.548,569.611 167.398,577.197C142.252,587.157 127.733,614.979 131.876,653.384C132.132,655.752 131.42,676.91 131.876,688.66C132.611,707.564 134.122,740.806 136.286,766.807C138.69,795.693 145.954,859.651 146.301,861.979Z" style="fill:rgb(30,63,108);"/>
                </g>
                <g id="k-light" transform="matrix(2.099857,0,0,2.099857,1620.230668,-998.824248)">
                    <path d="M175.907,592.243C179.513,590.21 184.091,591.488 186.124,595.094C188.157,598.699 186.879,603.277 183.273,605.31C174.997,609.975 170.039,618.658 167.105,629.965C163.756,642.867 163.146,659.002 164.333,677.235C164.602,681.366 161.467,684.938 157.336,685.207C153.206,685.476 149.634,682.341 149.365,678.21C147.785,653.95 149.384,633.066 155.296,617.677C159.714,606.175 166.516,597.537 175.907,592.243ZM151.516,711.659C151.263,707.527 154.412,703.968 158.544,703.715C162.675,703.462 166.235,706.611 166.488,710.742L167.407,725.747C167.66,729.879 164.511,733.438 160.379,733.691C156.248,733.944 152.688,730.795 152.435,726.664L151.516,711.659ZM377.832,558.171C381.574,559.941 383.176,564.415 381.406,568.157C379.637,571.9 375.453,572.665 371.42,571.732C366.97,570.703 357.298,571.066 354.25,573.072C351.103,575.141 348.264,586.695 347.498,598.16C347.055,604.788 346.704,614.1 344.108,624.582C338.524,647.129 334.969,655.217 328.345,671.959C326.823,675.808 313.211,698.078 309.362,696.556C305.513,695.033 315.383,671.042 316.906,667.193C322.44,653.204 324.009,647.917 328.055,627.526C329.175,621.884 332.33,609.931 332.549,599.393C332.998,577.765 336.287,569.132 344.158,561.974C352.838,554.081 365.065,552.136 377.832,558.171ZM354.376,849.618C351.254,846.9 346.3,842.613 348.794,839.309C351.288,836.005 364.61,844.072 368.118,846.27C390.705,860.419 417.3,882.593 444.88,920.567C447.313,923.917 447.442,926.534 444.245,929.164C441.049,931.794 436.454,931.217 433.688,928.137C407.484,898.96 381.566,873.29 354.376,849.618ZM452.804,954.647C450.522,951.194 450.885,945.165 454.339,942.883C457.792,940.601 462.645,940.768 464.927,944.222L472.475,953.193C474.757,956.646 473.806,964.831 470.353,967.113C466.899,969.395 462.047,967.072 459.765,963.618L452.804,954.647Z" style="fill:white;fill-opacity:0.36;"/>
                </g>
            </g>
        </g>
    </g>
</svg>
